<svg width="180" height="46" viewBox="0 0 180 46" fill="none" xmlns="http://www.w3.org/2000/svg">
<path d="M20.772 29.5943C23.2388 29.5961 25.6751 30.1411 27.9089 31.1907L20.772 13.8772L13.6351 31.1907C15.8689 30.1411 18.3052 29.5961 20.772 29.5943ZM61.9876 42.1489C61.9876 42.1489 64.5944 42.3011 65.0208 41.4778C65.6899 40.2053 65.656 38.1293 65.656 36.4541V21.5138C65.656 19.7062 64.5855 19.1031 63.4525 19.1031H61.1169V16.7586L70.8017 16.1555V36.4541C70.8017 38.1293 70.7696 40.2125 71.4369 41.4778C71.8687 42.3011 74.4701 42.1489 74.4701 42.1489V44.003H33.6987C31.0402 38.1758 26.2442 34.285 20.7684 34.285C15.2926 34.285 10.4948 38.1848 7.83633 44.003H0V42.0523C0 42.0523 3.23124 42.0219 3.81289 40.6742C6.88712 33.5728 20.772 0 20.772 0C20.772 0 34.6533 33.5728 37.7221 40.6742C37.9898 41.297 38.8248 41.6389 39.6455 41.825C39.8102 41.7531 39.9485 41.6318 40.0416 41.4778C40.7089 40.2053 40.675 38.1293 40.675 36.4541V6.30686C40.675 4.49749 39.6045 3.89615 38.4715 3.89615H36.1342V1.54987L45.819 0.948534V36.4541C45.819 38.1293 45.7851 40.2125 46.4524 41.4778C46.8841 42.3011 49.4855 42.1489 49.4855 42.1489C49.4855 42.1489 52.0923 42.3011 52.5187 41.4778C53.1878 40.2053 53.1539 38.1293 53.1539 36.4541V6.30686C53.1539 4.49749 52.0834 3.89615 50.9504 3.89615H48.6131V1.54987L58.2979 0.948534V36.4541C58.2979 38.1293 58.264 40.2125 58.9313 41.4778C59.363 42.3011 61.9644 42.1489 61.9644 42.1489H61.9876ZM92.9101 29.9522C90.9064 30.0864 79.953 31.026 79.953 37.6479C79.953 40.9964 82.1565 42.4031 84.7615 42.4031C87.3665 42.4031 92.9101 40.0586 92.9101 34.3638V29.9522ZM123.097 25.657C123.097 23.6507 122.227 19.4969 117.554 19.4969C112.546 19.4969 109.805 25.3921 109.805 30.9509V36.4452C109.805 38.1203 109.771 40.2035 110.442 41.4688C110.874 42.2921 113.475 42.14 113.475 42.14V43.9941H96.7033C94.1644 43.9941 93.2294 40.9337 93.2294 40.9337C93.2294 40.9337 89.5575 45.229 82.4777 45.229C75.3979 45.229 74.3969 40.6742 74.3969 38.1293C74.3969 31.6972 82.8113 29.1504 91.9609 27.8117C92.687 27.7062 92.8976 27.5433 92.8976 27.2748V24.7299C92.8976 21.7823 92.5621 18.7004 86.2174 18.7004C82.5437 18.7004 81.0093 19.7743 81.0093 20.7783C81.0093 22.389 82.6775 21.9845 82.6775 24.3272C82.6775 25.7339 81.1413 27.2086 79.2054 27.2086C77.2695 27.2086 75.9332 25.7339 75.9332 23.4503C75.9332 20.5027 79.4053 16.1483 87.2862 16.1483C95.1671 16.1483 98.1182 20.1089 98.1182 24.0606V37.7928C98.1182 39.7364 98.3841 42.1489 100.989 42.1489C100.989 42.1489 103.598 42.3011 104.022 41.4778C104.69 40.2053 104.656 38.1293 104.656 36.4541V21.5138C104.656 19.7062 103.585 19.1031 102.452 19.1031H100.115V16.7586L109.805 16.1555V22.3281C111.211 19.2964 114.51 16.1555 119.158 16.1555C124.899 16.1555 128.24 19.7725 128.24 26.7397V36.4541C128.24 38.1293 128.206 40.2125 128.875 41.4778C129.307 42.3011 131.908 42.1489 131.908 42.1489V44.003H119.418V42.1489C119.418 42.1489 122.025 42.3011 122.452 41.4778C123.119 40.2053 123.087 38.1293 123.087 36.4541V25.657H123.097ZM160.834 28.7495H171.386C172.856 28.7495 173.859 28.5491 173.859 27.0082C173.859 22.3192 171.919 18.432 167.971 18.432C162.761 18.432 160.834 23.8011 160.834 27.1424V28.7495ZM154.621 30.4891C154.621 22.5178 160.764 16.1537 167.91 16.1537C176.326 16.1537 179.864 23.2534 179.864 31.2265H160.764C160.764 37.9253 163.441 42.7485 169.113 42.7485C174.785 42.7485 178.33 36.2519 178.33 36.2519L180 37.3257C180 37.3257 177.463 45.2308 168.913 45.2308C157.026 45.2308 154.621 36.1875 154.621 30.4927V30.4891ZM149.545 26.7344C152.148 26.7344 153.292 24.5241 153.292 22.8489C153.292 18.8955 148.817 16.1501 144.21 16.1501C136.997 16.1501 130.918 21.5765 130.918 30.4855C130.918 38.3906 135.125 45.2236 142.738 45.2236C151.422 45.2236 153.759 36.8497 153.759 36.8497L151.956 35.9799C151.956 35.9799 149.415 41.9431 144.737 41.9431C140.058 41.9431 136.854 37.7892 136.854 30.4211C136.854 23.053 140.065 18.0257 144.267 18.0257C147.809 18.0257 148.014 20.372 148.014 20.372C148.014 20.372 146.203 21.9165 146.203 23.6579C146.203 25.3992 147.274 26.7397 149.543 26.7397L149.545 26.7344ZM64.7568 9.19183C64.7557 8.50251 64.9585 7.82836 65.3395 7.25466C65.7205 6.68097 66.2625 6.23351 66.8971 5.9689C67.5317 5.70429 68.2303 5.63442 68.9044 5.76812C69.5786 5.90181 70.1981 6.23308 70.6845 6.72001C71.171 7.20693 71.5025 7.82764 71.6372 8.5036C71.7718 9.17955 71.7036 9.88039 71.4411 10.5175C71.1786 11.1545 70.7336 11.6992 70.1625 12.0825C69.5913 12.4658 68.9197 12.6706 68.2324 12.671C67.3117 12.6715 66.4285 12.3053 65.7768 11.6529C65.125 11.0006 64.7582 10.1154 64.7568 9.19183Z" fill="black"/>
</svg>
